<?xml version="1.0" encoding="UTF-8" standalone="no"?>
<svg
   width="14"
   height="13.999958"
   viewBox="0 0 14 13.999958"
   fill="none"
   version="1.1"
   id="svg13"
   sodipodi:docname="Group 41.svg"
   inkscape:version="1.1 (c4e8f9e, 2021-05-24)"
   xmlns:inkscape="http://www.inkscape.org/namespaces/inkscape"
   xmlns:sodipodi="http://sodipodi.sourceforge.net/DTD/sodipodi-0.dtd"
   xmlns="http://www.w3.org/2000/svg"
   xmlns:svg="http://www.w3.org/2000/svg">
  <defs
     id="defs17" />
  <sodipodi:namedview
     id="namedview15"
     pagecolor="#ffffff"
     bordercolor="#666666"
     borderopacity="1.0"
     inkscape:pageshadow="2"
     inkscape:pageopacity="0.0"
     inkscape:pagecheckerboard="0"
     showgrid="false"
     inkscape:zoom="41.666667"
     inkscape:cx="6.816"
     inkscape:cy="7.788"
     inkscape:window-width="1465"
     inkscape:window-height="1003"
     inkscape:window-x="0"
     inkscape:window-y="25"
     inkscape:window-maximized="0"
     inkscape:current-layer="svg13" />
  <path
     d="m 6.9999,9.100058 c 1.1598,0 2.1,-0.94024 2.1,-2.10003 0,-1.1598 -0.9402,-2.1 -2.1,-2.1 -1.1598,0 -2.1,0.9402 -2.1,2.1 0,1.15979 0.9402,2.10003 2.1,2.10003 z"
     fill="#9747ff"
     id="path9" />
  <path
     d="M 7.7,1.448298 V 0 H 6.3 V 1.448298 C 5.06812,1.605348 3.92326,2.167018 3.04514,3.045138 2.16702,3.923258 1.60535,5.068118 1.4483,6.299998 H 0 v 1.4 h 1.4483 c 0.15693,1.23193 0.71856,2.37686 1.59671,3.25496 0.87814,0.8782 2.02306,1.4398 3.25499,1.5967 v 1.4483 h 1.4 v -1.4483 c 1.23193,-0.1569 2.3768,-0.7185 3.255,-1.5967 0.8781,-0.8781 1.4398,-2.02303 1.5967,-3.25496 H 14 v -1.4 H 12.5517 C 12.3947,5.068118 11.833,3.923258 10.9549,3.045138 10.0767,2.167018 8.93188,1.605348 7.7,1.448298 Z M 7,11.199958 c -2.3163,0 -4.2,-1.8837 -4.2,-4.19996 0,-2.3163 1.8837,-4.2 4.2,-4.2 2.3163,0 4.2,1.8837 4.2,4.2 0,2.31626 -1.8837,4.19996 -4.2,4.19996 z"
     fill="#9747ff"
     id="path11" />
</svg>
