<svg width="14" height="15" viewBox="0 0 14 15" fill="none" xmlns="http://www.w3.org/2000/svg">
<path d="M7.7 2.43664V0.988342H6.3V2.43664C5.06812 2.59369 3.92326 3.15536 3.04514 4.03348C2.16702 4.9116 1.60535 6.05646 1.4483 7.28834H0V8.68834H1.4483C1.60523 9.92027 2.16686 11.0652 3.04501 11.9433C3.92315 12.8215 5.06807 13.3831 6.3 13.54V14.9883H7.7V13.54C8.93193 13.3831 10.0768 12.8215 10.955 11.9433C11.8331 11.0652 12.3948 9.92027 12.5517 8.68834H14V7.28834H12.5517C12.3947 6.05646 11.833 4.9116 10.9549 4.03348C10.0767 3.15536 8.93188 2.59369 7.7 2.43664ZM7 12.1883C4.6837 12.1883 2.8 10.3046 2.8 7.98834C2.8 5.67204 4.6837 3.78834 7 3.78834C9.3163 3.78834 11.2 5.67204 11.2 7.98834C11.2 10.3046 9.3163 12.1883 7 12.1883Z" fill="#9747FF"/>
</svg>
