<svg width="14" height="17" viewBox="0 0 14 17" fill="none" xmlns="http://www.w3.org/2000/svg">
<path d="M0.310686 4.41833L6.67257 0.579602C6.8741 0.458004 7.1259 0.458004 7.32743 0.579602L13.6911 4.41935C13.897 4.54363 14 4.7559 14 4.96814V12.0077C14 12.2325 13.8827 12.4408 13.6911 12.5565L7.32976 16.3948C7.13962 16.5105 6.8908 16.5279 6.67257 16.3962L0.308938 12.5565C0.117262 12.4408 0 12.2325 0 12.0077V4.96814C0 4.7248 0.129112 4.52699 0.310686 4.41833ZM7 8.06161L12.1268 4.96814L7 1.87467L1.87324 4.96814L7 8.06161ZM6.36364 9.17021L1.27273 6.09846V11.6454L6.36364 14.7171V9.17021ZM7.63636 9.17021V14.7171L12.7273 11.6454V6.09846L7.63636 9.17021Z" fill="#9747FF"/>
</svg>
